<svg width="41" height="42" viewBox="0 0 41 42" fill="none" xmlns="http://www.w3.org/2000/svg">
<path d="M6.77035 33.9319C4.04838 30.9827 2.2747 27.8568 1.4493 24.5543C0.592257 21.2175 0.672927 17.9678 1.69131 14.8052C2.67805 11.6083 4.54313 8.7438 7.28657 6.21174C10.8187 2.95171 14.5566 1.15301 18.5 0.815643C22.4461 0.412332 26.2853 1.44132 30.0176 3.90259L22.2502 11.0715C20.6993 10.2168 19.1101 9.90539 17.4826 10.1374C15.8577 10.3035 14.3251 11.0512 12.8848 12.3805C10.8272 14.2796 9.89462 16.5374 10.087 19.1541C10.2477 21.7365 11.5941 24.3994 14.1262 27.1428C16.6266 29.8519 19.1732 31.4071 21.7661 31.8082C24.3274 32.175 26.6368 31.4089 28.6944 29.5098C31.6093 26.8195 32.3098 23.7598 30.7959 20.3306L38.5633 13.1617C40.6231 16.976 41.3258 20.8681 40.6714 24.8379C40.017 28.8076 37.9408 32.4067 34.4429 35.6351C31.6995 38.1672 28.7108 39.8142 25.4769 40.5763C22.2113 41.3041 18.9655 41.1245 15.7396 40.0376C12.4821 38.9163 9.49231 36.8811 6.77035 33.9319Z" fill="url(#paint0_linear_25_2)"/>
<defs>
<linearGradient id="paint0_linear_25_2" x1="17.6003" y1="59.0547" x2="21.7687" y2="0.0173344" gradientUnits="userSpaceOnUse">
<stop stop-color="#0091F5"/>
<stop offset="1" stop-color="#005895"/>
</linearGradient>
</defs>
</svg>
