<svg width="19" height="22" viewBox="0 0 19 22" fill="none" xmlns="http://www.w3.org/2000/svg">
<path d="M17.8102 11.9503C16.962 12.1045 16.268 11.9503 15.9595 11.4105C15.6511 10.8707 15.8824 10.0996 16.4222 9.48272C15.7282 8.78872 14.9571 8.32606 14.0318 8.09473C13.8004 8.86584 13.2606 9.48272 12.6438 9.48272C12.0269 9.48272 11.4871 8.94295 11.2558 8.09473C10.3304 8.32606 9.48221 8.78872 8.86532 9.48272C9.4051 10.0996 9.63643 10.8707 9.32799 11.4105C9.01954 11.9503 8.24844 12.1045 7.47733 11.9503C7.24599 12.4129 7.16888 12.8756 7.16888 13.3383C7.16888 13.8009 7.246 14.2636 7.32311 14.7263C8.17133 14.572 8.86532 14.7263 9.17377 15.266C9.48221 15.8058 9.25088 16.5769 8.7111 17.1938C9.4051 17.8878 10.1762 18.3505 11.1015 18.5818C11.3329 17.8107 11.8726 17.1938 12.4895 17.1938C13.1064 17.1938 13.6462 17.7336 13.8775 18.5818C14.8029 18.3505 15.6511 17.8878 16.268 17.1938C15.7282 16.5769 15.4969 15.8058 15.8053 15.266C16.1137 14.7263 16.8849 14.572 17.656 14.7263C17.8102 14.2636 17.8102 13.8009 17.8102 13.3383C17.8102 12.8756 17.8873 12.4129 17.8102 11.9503Z" stroke="white" stroke-miterlimit="10" stroke-linecap="round" stroke-linejoin="round"/>
<path d="M12.5666 14.8805C13.4184 14.8805 14.1088 14.19 14.1088 13.3383C14.1088 12.4865 13.4184 11.796 12.5666 11.796C11.7149 11.796 11.0244 12.4865 11.0244 13.3383C11.0244 14.19 11.7149 14.8805 12.5666 14.8805Z" stroke="white" stroke-miterlimit="10" stroke-linecap="round" stroke-linejoin="round"/>
<path d="M10.2533 1.00052V5.62717H14.88L10.2533 1.00052ZM10.2533 1.00052H1V21.0493H14.88V18.1962" stroke="white" stroke-width="1.5" stroke-miterlimit="10" stroke-linecap="round" stroke-linejoin="round"/>
<path d="M14.8799 5.62717V7.94049" stroke="white" stroke-width="2" stroke-miterlimit="10" stroke-linecap="round" stroke-linejoin="round"/>
</svg>
