<svg width="27" height="26" viewBox="0 0 27 26" fill="none" xmlns="http://www.w3.org/2000/svg">
<path d="M16.8392 0.0298176C16.5924 0.0709515 16.1965 0.209778 15.9651 0.338322C15.8212 0.420591 14.4123 1.7883 12.1808 4.01468L8.62786 7.56248L9.05977 5.79886C9.55852 3.73702 9.6048 3.40795 9.4454 2.78065C9.30657 2.23563 9.08548 1.85 8.69471 1.45408C8.12911 0.893631 7.53781 0.646828 6.7357 0.641685C5.74848 0.636545 4.99264 1.00675 4.41677 1.77287C4.11855 2.17907 4.03628 2.40017 3.72777 3.67018C3.1776 5.92227 2.36521 8.07152 1.10548 10.5858C0.632436 11.5319 0.303364 12.4626 0.11826 13.3624C0.0154253 13.8817 0 14.1028 0 15.2134C0 16.3292 0.0154253 16.54 0.11826 17.0644C0.796972 20.4014 3.03878 23.0957 6.1701 24.3349C8.1034 25.0959 10.5612 25.1884 12.5716 24.5817C13.8056 24.2063 14.8597 23.6459 15.9137 22.8078C16.1245 22.6381 18.2584 20.5403 20.6544 18.1494C24.8501 13.9537 25.0146 13.784 25.1895 13.4241C25.5545 12.6528 25.5545 11.8507 25.1843 11.1C24.9684 10.6578 24.5467 10.2002 24.192 10.0202C24.0634 9.95854 23.9503 9.89684 23.94 9.88656C23.9246 9.87627 24.2177 9.55749 24.5879 9.18214C25.3026 8.45715 25.5082 8.13836 25.6265 7.56248C25.9042 6.23591 25.0969 4.87335 23.8115 4.49286L23.6109 4.43116L23.6212 4.0918C23.6469 3.33082 23.395 2.68296 22.85 2.13794C22.089 1.37696 21.0298 1.15072 20.0117 1.53635C19.8677 1.59291 19.7341 1.63919 19.7186 1.63919C19.7032 1.63919 19.6364 1.51578 19.5644 1.37181C19.3947 1.01703 18.9011 0.523426 18.5052 0.312614C18.0064 0.0503845 17.3637 -0.0575924 16.8392 0.0298176ZM17.7802 1.79344C18.0681 1.98882 18.2275 2.28191 18.2275 2.60069C18.2275 2.75495 18.1915 2.95033 18.1453 3.04288C18.099 3.13544 16.7775 4.49286 15.2093 6.06623C12.6539 8.62683 12.3505 8.95076 12.3196 9.12558C12.2014 9.7683 12.6693 10.2208 13.3274 10.0974C13.5022 10.0665 13.9084 9.68089 17.0192 6.57527C19.842 3.76273 20.5516 3.07888 20.7161 3.02746C21.5439 2.76523 22.3049 3.73702 21.837 4.47229C21.7548 4.59569 20.1814 6.18964 18.3406 8.00982C16.4999 9.83 14.9574 11.3931 14.9162 11.4856C14.6026 12.1438 15.1733 12.8276 15.8726 12.6425C16.068 12.5911 16.4536 12.2209 19.333 9.35182C22.1044 6.58555 22.6032 6.11251 22.778 6.06623C23.0556 5.98911 23.1842 5.99425 23.4104 6.0868C23.9503 6.31304 24.192 6.94547 23.9349 7.44423C23.8783 7.56248 22.454 9.01246 20.3408 11.1052C18.4126 13.0076 16.8033 14.6427 16.7621 14.7301C16.649 14.9718 16.6644 15.3471 16.7981 15.5631C16.9164 15.7584 17.2352 15.9333 17.482 15.9333C17.8265 15.9333 18.027 15.7584 20.1557 13.6195C21.3743 12.3957 22.3512 11.4599 22.4643 11.3982C22.7317 11.2645 23.1328 11.2903 23.3847 11.4599C23.8012 11.7479 23.9451 12.2672 23.7189 12.6785C23.5389 13.0076 14.9779 21.4812 14.4432 21.8617C13.3994 22.597 12.1551 23.0906 10.8491 23.286C10.2115 23.3837 9.04435 23.358 8.35535 23.2397C5.76391 22.7924 3.52724 21.1007 2.39092 18.7355C1.76876 17.4449 1.48597 15.923 1.61451 14.581C1.73277 13.2853 1.97958 12.514 2.75598 10.9406C3.97972 8.46229 4.69956 6.54442 5.29086 4.16379C5.44512 3.54678 5.60451 2.9709 5.65079 2.88349C5.75876 2.67268 6.04156 2.43616 6.31922 2.33332C7.00821 2.07109 7.82061 2.60069 7.87717 3.35139C7.89773 3.56734 7.74862 4.24605 7.12647 6.80665C6.69971 8.55999 6.35007 10.0974 6.35007 10.2208C6.35007 10.7761 6.91566 11.1463 7.46583 10.9458C7.5481 10.9149 9.59966 8.89934 12.1602 6.34389C15.0191 3.48507 16.7775 1.76773 16.8907 1.71631C17.1426 1.60319 17.5591 1.63919 17.7802 1.79344Z" fill="#0091F5"/>
<path d="M22.598 18.5453C22.4592 18.6224 22.3615 18.7509 22.1609 19.1263C21.801 19.805 21.4925 20.2215 21.0041 20.6791C20.5104 21.1418 19.9089 21.5275 19.333 21.7486C18.7365 21.9748 18.536 22.201 18.536 22.6175C18.536 22.926 18.6697 23.1677 18.9216 23.3117C19.1942 23.4711 19.4204 23.4762 19.8317 23.3168C20.8909 22.9209 21.8473 22.2627 22.6031 21.4041C23.1893 20.7408 23.7703 19.7381 23.8166 19.3062C23.8474 19.0286 23.6623 18.6789 23.4207 18.5504C23.1944 18.427 22.8294 18.427 22.598 18.5453Z" fill="#0091F5"/>
<path d="M25.282 19.9438C25.0249 20.0055 24.8758 20.1752 24.5673 20.7768C24.1919 21.5172 23.7549 22.1136 23.1842 22.6895C22.4335 23.4402 21.7496 23.8824 20.4796 24.4377C20.1043 24.5971 19.9757 24.7925 19.9757 25.1884C19.9757 25.5535 20.1094 25.7797 20.4025 25.9083C20.7161 26.0522 20.8652 26.0368 21.4668 25.79C23.4258 24.9879 25.1586 23.3579 26.0687 21.4606C26.3309 20.9208 26.3721 20.5711 26.2127 20.2935C26.0378 20.0055 25.6368 19.8513 25.282 19.9438Z" fill="#0091F5"/>
</svg>
