<svg width="36" height="36" viewBox="0 0 36 36" fill="none" xmlns="http://www.w3.org/2000/svg">
<path d="M18 0C8.0784 0 0 8.0784 0 18C0 22.8816 2.016 27.6192 5.5296 30.9888C8.6832 34.0272 12.7728 35.7552 17.136 35.9568C17.352 35.9712 17.5824 36 17.7984 36C17.8272 36 17.8704 36 17.8992 36C17.928 36 17.9712 36 18 36C22.6512 36 27.0576 34.2432 30.4272 31.032C34.0272 27.5904 36 22.968 36 18C36 8.0784 27.9216 0 18 0ZM30.1104 29.2752C29.448 26.928 26.3088 25.6608 23.9472 24.7248L23.1408 24.3936C21.6 23.76 21.6 23.1696 21.6 22.32C21.6 21.7152 21.9024 20.8512 22.4496 20.3328C23.8464 19.1088 24.5808 17.424 24.5808 15.4656C24.5808 11.5056 21.816 8.64 18 8.64C14.1984 8.64 11.5488 11.448 11.5488 15.4656C11.5488 17.5104 12.24 19.152 13.5792 20.3328C14.1408 20.8368 14.3856 21.7152 14.3856 22.32C14.3856 22.9248 14.3856 23.6736 12.5136 24.4368C10.2096 25.3872 7.1568 26.6832 5.76 29.1312C3.0096 26.0928 1.44 22.104 1.44 18C1.44 8.8704 8.8704 1.44 18 1.44C27.1296 1.44 34.56 8.8704 34.56 18C34.56 22.2336 32.976 26.1936 30.1104 29.2752Z" fill="#0091F5"/>
</svg>
