<svg width="20" height="20" viewBox="0 0 20 20" fill="none" xmlns="http://www.w3.org/2000/svg">
<path d="M3.33333 20H16.6667V18.3333H20V13.3333C20 10.9025 18.3904 8.84125 16.1812 8.15792C17.2229 7.49083 17.9167 6.32583 17.9167 5C17.9167 2.9325 16.2346 1.25 14.1667 1.25C13.8104 1.25 13.4571 1.30333 13.1121 1.40542C12.3483 0.545833 11.2379 0 10 0C8.76208 0 7.65167 0.545833 6.88792 1.40542C6.54292 1.30333 6.18958 1.25 5.83333 1.25C3.76542 1.25 2.08333 2.9325 2.08333 5C2.08333 6.32583 2.77708 7.49083 3.81875 8.15792C1.60958 8.84125 0 10.9025 0 13.3333V18.3333H3.33333V20ZM15.8333 19.1667H4.16667V18.3333V12.9167C4.16667 12.7775 4.17542 12.64 4.1875 12.5037C4.19167 12.4592 4.19708 12.415 4.20208 12.3704C4.21333 12.2762 4.22792 12.1833 4.245 12.0912C4.25375 12.0446 4.26083 11.9975 4.27083 11.9513C4.29667 11.8317 4.32708 11.7142 4.36167 11.5979C4.37917 11.5404 4.4 11.4846 4.41958 11.4279C4.44208 11.3621 4.46583 11.2971 4.49125 11.2325C4.51583 11.1704 4.54167 11.1087 4.56875 11.0479C4.59542 10.9883 4.62458 10.93 4.65375 10.8717C4.69625 10.7867 4.74125 10.7033 4.78875 10.6212C4.83042 10.55 4.87208 10.4787 4.91708 10.41C4.95208 10.3567 4.98958 10.305 5.02667 10.2529C5.06583 10.1979 5.10625 10.1438 5.14792 10.0908C5.18625 10.0421 5.22458 9.99375 5.265 9.94667C5.3175 9.88542 5.37208 9.82625 5.4275 9.76792C5.47875 9.71375 5.53125 9.66042 5.585 9.60875C5.65125 9.54542 5.71833 9.48333 5.78833 9.42375C5.83417 9.385 5.88167 9.34792 5.92917 9.31083C5.98375 9.26833 6.03875 9.22667 6.09542 9.18667C6.14792 9.14917 6.20042 9.11208 6.255 9.07667C6.31 9.04083 6.36667 9.00792 6.42292 8.97458C6.52917 8.91167 6.63833 8.85292 6.75042 8.79833C6.80667 8.77083 6.86208 8.74208 6.91958 8.71667L6.98667 8.68667C7.53 8.45958 8.12542 8.33333 8.75 8.33333H11.25C11.8746 8.33333 12.47 8.45958 13.0129 8.68708L13.08 8.71708C13.1375 8.74208 13.1929 8.77125 13.2492 8.79875C13.3612 8.85333 13.4704 8.91208 13.5767 8.975C13.6333 9.00833 13.69 9.04125 13.7446 9.07708C13.7987 9.1125 13.8517 9.14958 13.9042 9.18708C13.9604 9.22708 14.0158 9.26875 14.0704 9.31125C14.1179 9.34833 14.1654 9.38542 14.2112 9.42417C14.2812 9.48333 14.3483 9.54583 14.4146 9.60917C14.4688 9.66083 14.5208 9.71417 14.5721 9.76833C14.6275 9.82667 14.6825 9.88583 14.7346 9.94708C14.7746 9.99417 14.8133 10.0425 14.8517 10.0912C14.8933 10.1442 14.9338 10.1983 14.9729 10.2533C15.01 10.3054 15.0479 10.3567 15.0825 10.4104C15.1275 10.4792 15.1696 10.5504 15.2108 10.6217C15.2583 10.7037 15.3033 10.7875 15.3458 10.8721C15.375 10.9304 15.4042 10.9888 15.4308 11.0483C15.4583 11.1092 15.4838 11.1708 15.5083 11.2329C15.5338 11.2971 15.5571 11.3625 15.58 11.4283C15.5996 11.485 15.6204 11.5413 15.6379 11.5983C15.6729 11.7142 15.7033 11.8321 15.7288 11.9517C15.7387 11.9979 15.7463 12.045 15.7546 12.0917C15.7712 12.1838 15.7863 12.2771 15.7975 12.3708C15.8029 12.415 15.8083 12.4596 15.8121 12.5042C15.8246 12.64 15.8333 12.7775 15.8333 12.9167V18.3333V19.1667ZM19.1667 13.3333V17.5H16.6667V12.9167C16.6667 12.7188 16.6546 12.5237 16.6338 12.3312C16.6287 12.2858 16.6192 12.2417 16.6133 12.1967C16.5933 12.0479 16.57 11.9 16.5383 11.7554C16.5279 11.7079 16.5138 11.6621 16.5021 11.615C16.4671 11.4737 16.4283 11.3342 16.3825 11.1975C16.3671 11.1512 16.3492 11.1062 16.3325 11.0608C16.2833 10.9262 16.2296 10.7937 16.1704 10.6646C16.1496 10.6192 16.1275 10.5742 16.105 10.5296C16.0429 10.4033 15.9763 10.2804 15.9046 10.16C15.8783 10.1158 15.8521 10.0717 15.8242 10.0279C15.7492 9.91 15.6696 9.79583 15.5863 9.68417C15.5558 9.64333 15.5267 9.60208 15.495 9.56208C15.4037 9.44667 15.3067 9.33625 15.2062 9.22875C15.1779 9.19833 15.1517 9.16625 15.1225 9.13667C14.9908 9.00167 14.8533 8.8725 14.7083 8.75208C17.1779 8.81833 19.1667 10.8479 19.1667 13.3333ZM13.6346 2.13375C13.8104 2.10042 13.9879 2.08333 14.1667 2.08333C15.7746 2.08333 17.0833 3.39167 17.0833 5C17.0833 6.60833 15.7746 7.91667 14.1667 7.91667C13.5946 7.91667 13.0442 7.75 12.5725 7.44C12.5787 7.43542 12.5837 7.42958 12.5896 7.42458C12.9483 7.13917 13.2575 6.79583 13.5058 6.40875C13.5138 6.39625 13.5208 6.38375 13.5288 6.37125C13.6008 6.25625 13.6671 6.13792 13.7279 6.01583C13.7379 5.99583 13.7471 5.97583 13.7567 5.95583C13.8121 5.84042 13.8617 5.72208 13.9062 5.60083C13.9154 5.57583 13.925 5.55083 13.9338 5.52583C13.9742 5.40958 14.0087 5.29083 14.0387 5.17C14.0463 5.14 14.055 5.11042 14.0617 5.08042C14.0883 4.9625 14.1083 4.8425 14.1246 4.72083C14.1292 4.68875 14.1358 4.65708 14.1392 4.62458C14.1567 4.47458 14.1667 4.32167 14.1667 4.16667C14.1667 4.00167 14.1546 3.84 14.1358 3.68C14.13 3.62917 14.1204 3.57917 14.1125 3.52833C14.095 3.41667 14.0742 3.30625 14.0483 3.1975C14.0358 3.14458 14.0225 3.09208 14.0079 3.04C13.9742 2.91958 13.9346 2.80167 13.8904 2.68625C13.8779 2.65417 13.8679 2.62125 13.855 2.58958C13.7917 2.43542 13.7196 2.28625 13.6388 2.14167C13.6367 2.13875 13.6358 2.13625 13.6346 2.13375ZM12.5679 2.04375L12.5933 2.07667C12.6138 2.10208 12.6321 2.12875 12.6517 2.15458C12.8642 2.43417 13.0267 2.73875 13.1408 3.06C13.1483 3.08083 13.1567 3.10125 13.1637 3.1225C13.2133 3.27208 13.2508 3.425 13.2787 3.58083C13.2846 3.61333 13.2892 3.64667 13.2937 3.67958C13.3171 3.84 13.3333 4.00208 13.3333 4.16667C13.3333 4.30333 13.3229 4.43833 13.3063 4.57208C13.3025 4.60333 13.2967 4.63417 13.2921 4.66542C13.275 4.77583 13.2537 4.885 13.2258 4.99208C13.22 5.01458 13.2146 5.0375 13.2083 5.06C13.1329 5.32833 13.0254 5.58583 12.8871 5.82583C12.8846 5.83 12.8821 5.83417 12.8796 5.83833C12.8125 5.95375 12.7375 6.065 12.6567 6.17167C12.6492 6.18125 12.6421 6.19125 12.6346 6.20125C12.465 6.42083 12.2675 6.61958 12.0454 6.79292C12.0325 6.80292 12.0187 6.8125 12.0058 6.8225C11.9029 6.90042 11.7954 6.97292 11.6829 7.03917C11.6629 7.05083 11.6442 7.06375 11.6237 7.075L11.5763 7.1025C11.1062 7.35583 10.57 7.5 10 7.5C9.43 7.5 8.89375 7.35583 8.42417 7.1025L8.37667 7.075C8.35667 7.06375 8.3375 7.05083 8.3175 7.03917C8.205 6.97292 8.0975 6.90042 7.99458 6.8225C7.98125 6.8125 7.96792 6.80292 7.955 6.79292C7.73333 6.61958 7.53583 6.42083 7.36583 6.20125C7.35833 6.19167 7.35125 6.18167 7.34375 6.17167C7.26292 6.065 7.18833 5.95375 7.12083 5.83833C7.11833 5.83417 7.11583 5.83 7.11333 5.82583C6.97458 5.58542 6.86708 5.32792 6.79167 5.05958C6.78542 5.0375 6.78 5.01458 6.77417 4.9925C6.74625 4.885 6.725 4.77583 6.70792 4.66542C6.70333 4.63417 6.6975 4.60375 6.69375 4.57208C6.67708 4.43833 6.66667 4.30333 6.66667 4.16667C6.66667 4.00208 6.68292 3.84 6.70625 3.68C6.71125 3.64708 6.71542 3.61417 6.72125 3.58125C6.74917 3.42583 6.78667 3.2725 6.83625 3.12292C6.84333 3.10167 6.85167 3.08125 6.85917 3.06042C6.97333 2.73917 7.13583 2.43417 7.34833 2.155C7.36792 2.12917 7.38625 2.10208 7.40667 2.07708L7.43208 2.04417C8.04417 1.305 8.96792 0.833333 10 0.833333C11.0321 0.833333 11.9558 1.305 12.5679 2.04375ZM2.91667 5C2.91667 3.39167 4.22542 2.08333 5.83333 2.08333C6.01208 2.08333 6.18958 2.10042 6.36542 2.13375C6.36417 2.13625 6.36292 2.13917 6.36167 2.14167C6.28125 2.28583 6.20875 2.435 6.14542 2.58917C6.13208 2.62125 6.12208 2.65417 6.10958 2.68667C6.06542 2.80208 6.02583 2.92 5.99208 3.04C5.9775 3.09208 5.96417 3.14458 5.95167 3.1975C5.92583 3.30625 5.905 3.41667 5.8875 3.52833C5.87958 3.57875 5.87042 3.62875 5.86417 3.68C5.84542 3.84 5.83333 4.00167 5.83333 4.16667C5.83333 4.32167 5.84333 4.47458 5.86 4.625C5.86375 4.6575 5.87042 4.68875 5.87458 4.72083C5.89083 4.8425 5.91125 4.96292 5.9375 5.08083C5.94417 5.11083 5.95292 5.14 5.96042 5.16958C5.99042 5.29042 6.025 5.40958 6.06542 5.52625C6.07417 5.55167 6.08375 5.57625 6.09292 5.60167C6.1375 5.7225 6.1875 5.84083 6.2425 5.95625C6.25208 5.97625 6.26167 5.99667 6.27167 6.01667C6.3325 6.13875 6.39875 6.25708 6.47083 6.37208C6.47875 6.38458 6.48583 6.39708 6.49375 6.40958C6.74208 6.79667 7.05167 7.13958 7.41 7.42542C7.41583 7.43042 7.42125 7.43583 7.42708 7.44083C6.95583 7.75 6.40542 7.91667 5.83333 7.91667C4.22542 7.91667 2.91667 6.60833 2.91667 5ZM0.833333 17.5V13.3333C0.833333 10.8479 2.82208 8.81833 5.29208 8.75167C5.14708 8.87208 5.00958 9.00167 4.87792 9.13625C4.84875 9.16583 4.8225 9.19792 4.79417 9.22833C4.69375 9.33583 4.59667 9.44625 4.505 9.56208C4.47375 9.60167 4.44458 9.64292 4.41417 9.68375C4.33042 9.79542 4.25083 9.90958 4.17583 10.0279C4.14833 10.0717 4.12208 10.1154 4.09542 10.16C4.02375 10.2804 3.95708 10.4033 3.895 10.5296C3.87292 10.5746 3.85083 10.6192 3.82958 10.6646C3.77 10.7937 3.71667 10.9262 3.6675 11.0608C3.65083 11.1067 3.63292 11.1512 3.6175 11.1975C3.57167 11.3346 3.53292 11.4742 3.4975 11.6158C3.48583 11.6625 3.47208 11.7083 3.46167 11.7554C3.43 11.9004 3.40667 12.0483 3.38667 12.1975C3.38042 12.2425 3.37125 12.2863 3.36625 12.3317C3.34542 12.5238 3.33333 12.7188 3.33333 12.9167V17.5H0.833333Z" fill="white"/>
</svg>
