<svg width="897" height="179" viewBox="0 0 897 179" fill="none" xmlns="http://www.w3.org/2000/svg">
<path d="M26.5545 147.373C14.5001 134.312 6.64524 120.469 2.98991 105.844C-0.805578 91.0663 -0.448326 76.6747 4.06167 62.6689C8.4315 48.5112 16.6912 35.8257 28.8407 24.6122C44.4832 10.175 61.0364 2.20931 78.5003 0.715244C95.9759 -1.07085 112.978 3.48608 129.507 14.386L95.1083 46.134C88.2399 42.3487 81.2019 40.9698 73.9943 41.9973C66.7985 42.7328 60.0113 46.044 53.6328 51.9311C44.5207 60.3411 40.3906 70.3402 41.2426 81.9283C41.9544 93.3645 47.917 105.157 59.1304 117.307C70.2036 129.305 81.4817 136.192 92.9644 137.968C104.307 139.592 114.534 136.2 123.647 127.79C136.555 115.875 139.658 102.325 132.954 87.1386L167.352 55.3906C176.474 72.2826 179.586 89.5189 176.688 107.099C173.79 124.68 164.595 140.619 149.105 154.916C136.955 166.129 123.719 173.423 109.398 176.798C94.9358 180.021 80.5618 179.226 66.2756 174.412C51.8493 169.447 38.609 160.434 26.5545 147.373Z" fill="url(#paint0_linear_12_274)"/>
<path d="M355.2 83.3C355.2 89.3 354.8 94.7 354 99.5H232.5C233.5 111.5 237.7 120.9 245.1 127.7C252.5 134.5 261.6 137.9 272.4 137.9C288 137.9 299.1 131.2 305.7 117.8H351C346.2 133.8 337 147 323.4 157.4C309.8 167.6 293.1 172.7 273.3 172.7C257.3 172.7 242.9 169.2 230.1 162.2C217.5 155 207.6 144.9 200.4 131.9C193.4 118.9 189.9 103.9 189.9 86.9C189.9 69.7 193.4 54.6 200.4 41.6C207.4 28.6 217.2 18.6 229.8 11.6C242.4 4.60001 256.9 1.10001 273.3 1.10001C289.1 1.10001 303.2 4.50001 315.6 11.3C328.2 18.1 337.9 27.8 344.7 40.4C351.7 52.8 355.2 67.1 355.2 83.3ZM311.7 71.3C311.5 60.5 307.6 51.9 300 45.5C292.4 38.9 283.1 35.6 272.1 35.6C261.7 35.6 252.9 38.8 245.7 45.2C238.7 51.4 234.4 60.1 232.8 71.3H311.7Z" fill="url(#paint1_linear_12_274)"/>
<path d="M375.056 86.3C375.056 69.5 378.356 54.6 384.956 41.6C391.756 28.6 400.856 18.6 412.256 11.6C423.856 4.60001 436.756 1.10001 450.956 1.10001C463.356 1.10001 474.156 3.60001 483.356 8.6C492.756 13.6 500.256 19.9 505.856 27.5V3.80001H548.156V170H505.856V145.7C500.456 153.5 492.956 160 483.356 165.2C473.956 170.2 463.056 172.7 450.656 172.7C436.656 172.7 423.856 169.1 412.256 161.9C400.856 154.7 391.756 144.6 384.956 131.6C378.356 118.4 375.056 103.3 375.056 86.3ZM505.856 86.9C505.856 76.7 503.856 68 499.856 60.8C495.856 53.4 490.456 47.8 483.656 44C476.856 40 469.556 38 461.756 38C453.956 38 446.756 39.9 440.156 43.7C433.556 47.5 428.156 53.1 423.956 60.5C419.956 67.7 417.956 76.3 417.956 86.3C417.956 96.3 419.956 105.1 423.956 112.7C428.156 120.1 433.556 125.8 440.156 129.8C446.956 133.8 454.156 135.8 461.756 135.8C469.556 135.8 476.856 133.9 483.656 130.1C490.456 126.1 495.856 120.5 499.856 113.3C503.856 105.9 505.856 97.1 505.856 86.9Z" fill="url(#paint2_linear_12_274)"/>
<path d="M627.577 135.5H701.677V170H579.877V136.1L652.477 38.3H580.177V3.80001H700.777V37.7L627.577 135.5Z" fill="url(#paint3_linear_12_274)"/>
<path d="M723.396 86.3C723.396 69.5 726.696 54.6 733.296 41.6C740.096 28.6 749.196 18.6 760.596 11.6C772.196 4.60001 785.096 1.10001 799.296 1.10001C811.696 1.10001 822.496 3.60001 831.696 8.6C841.096 13.6 848.596 19.9 854.196 27.5V3.80001H896.496V170H854.196V145.7C848.796 153.5 841.296 160 831.696 165.2C822.296 170.2 811.396 172.7 798.996 172.7C784.996 172.7 772.196 169.1 760.596 161.9C749.196 154.7 740.096 144.6 733.296 131.6C726.696 118.4 723.396 103.3 723.396 86.3ZM854.196 86.9C854.196 76.7 852.196 68 848.196 60.8C844.196 53.4 838.796 47.8 831.996 44C825.196 40 817.896 38 810.096 38C802.296 38 795.096 39.9 788.496 43.7C781.896 47.5 776.496 53.1 772.296 60.5C768.296 67.7 766.296 76.3 766.296 86.3C766.296 96.3 768.296 105.1 772.296 112.7C776.496 120.1 781.896 125.8 788.496 129.8C795.296 133.8 802.496 135.8 810.096 135.8C817.896 135.8 825.196 133.9 831.996 130.1C838.796 126.1 844.196 120.5 848.196 113.3C852.196 105.9 854.196 97.1 854.196 86.9Z" fill="url(#paint4_linear_12_274)"/>
<defs>
<linearGradient id="paint0_linear_12_274" x1="63.953" y1="197.5" x2="155.833" y2="-148.232" gradientUnits="userSpaceOnUse">
<stop stop-color="#0091F5"/>
<stop offset="1" stop-color="#005895"/>
</linearGradient>
<linearGradient id="paint1_linear_12_274" x1="63.953" y1="197.5" x2="155.833" y2="-148.232" gradientUnits="userSpaceOnUse">
<stop stop-color="#0091F5"/>
<stop offset="1" stop-color="#005895"/>
</linearGradient>
<linearGradient id="paint2_linear_12_274" x1="63.953" y1="197.5" x2="155.833" y2="-148.232" gradientUnits="userSpaceOnUse">
<stop stop-color="#0091F5"/>
<stop offset="1" stop-color="#005895"/>
</linearGradient>
<linearGradient id="paint3_linear_12_274" x1="63.953" y1="197.5" x2="155.833" y2="-148.232" gradientUnits="userSpaceOnUse">
<stop stop-color="#0091F5"/>
<stop offset="1" stop-color="#005895"/>
</linearGradient>
<linearGradient id="paint4_linear_12_274" x1="63.953" y1="197.5" x2="155.833" y2="-148.232" gradientUnits="userSpaceOnUse">
<stop stop-color="#0091F5"/>
<stop offset="1" stop-color="#005895"/>
</linearGradient>
</defs>
</svg>
